HIERARCHY
ROOT pelvis
{
  OFFSET 0 100 0
  CHANNELS 6 Xposition Yposition Zposition Zrotation Xrotation Yrotation
  JOINT pelvis_right_femur
  {
    OFFSET -10.78128 -3.44521 -0.5502486
    CHANNELS 3 Zrotation Xrotation Yrotation
    JOINT right_femur_tibia
    {
      OFFSET -0.8047443 -44.0398 -0.1307829
      CHANNELS 3 Zrotation Xrotation Yrotation
      JOINT right_tibia_foot
      {
        OFFSET 3.006224 -47.83518 -5
        CHANNELS 3 Zrotation Xrotation Yrotation
        End Site
        {
          OFFSET 0 -5 15
        }
      }
    }
  }
  JOINT pelvis_left_femur
  {
    OFFSET 10.78128 -3.44521 -0.5502486
    CHANNELS 3 Zrotation Xrotation Yrotation
    JOINT left_femur_tibia
    {
      OFFSET 0.8047443 -44.0398 -0.1307829
      CHANNELS 3 Zrotation Xrotation Yrotation
      JOINT left_tibia_foot
      {
        OFFSET -4.370144 -48.10324 -4.275266
        CHANNELS 3 Zrotation Xrotation Yrotation
        End Site
        {
          OFFSET 0 -5 15
        }
      }
    }
  }
  JOINT pelvis_spine1
  {
    OFFSET 0 6.468898 -3.129235
    CHANNELS 3 Zrotation Xrotation Yrotation
    JOINT spine1
    {
      OFFSET 0 23.15396 4.99043
      CHANNELS 3 Zrotation Xrotation Yrotation
      JOINT spine2
      {
        OFFSET 0 20.79997 -5.064912
        CHANNELS 3 Zrotation Xrotation Yrotation
        JOINT neck
        {
          OFFSET 0 14.38658 9.616178
          CHANNELS 3 Zrotation Xrotation Yrotation
          End Site
          {
            OFFSET 0 20 0
          }
        }
      }
      JOINT right_manubrium
      {
        OFFSET -5.722621 16.35077 3.967754
        CHANNELS 3 Zrotation Xrotation Yrotation
        JOINT right_clavicle
        {
          OFFSET -13.16364 1.694482 -4.693211
          CHANNELS 3 Zrotation Xrotation Yrotation
          JOINT right_humerus
          {
            OFFSET -28.5034 -0.3100689 -2.792744
            CHANNELS 3 Zrotation Xrotation Yrotation
            JOINT right_radius
            {
              OFFSET -25.15693 0.02248979 -1.271978
              CHANNELS 3 Zrotation Xrotation Yrotation
              End Site
              {
                OFFSET -15 0 0
              }
            }
          }
        }
      }
      JOINT left_manubrium
      {
        OFFSET 5.722621 16.35077 3.967754
        CHANNELS 3 Zrotation Xrotation Yrotation
        JOINT left_clavicle
        {
          OFFSET 13.16364 1.694482 -4.693211
          CHANNELS 3 Zrotation Xrotation Yrotation
          JOINT left_humerus
          {
            OFFSET 29.39168 -1.063119 -2.237045
            CHANNELS 3 Zrotation Xrotation Yrotation
            JOINT left_radius
            {
              OFFSET 24.59957 -0.9528479 0.9047498
              CHANNELS 3 Zrotation Xrotation Yrotation
              End Site
              {
                OFFSET 15 -0 -0
              }
            }
          }
        }
      }
    }
  }
}
MOTION
Frames: 7
Frame Time: 0.0416666666667
23.46949 98.53534 247.1772 1.376061 -8.666254 -8.060175 0.07287087 19.34748 7.456541 -0 11.17497 -0 5.867776 -12.98975 0.6996787 -0.9190076 -21.30664 -4.785107 -0 34.97559 -0 -8.173147 -6.217681 19.50304 -1.305736 -0.8011456 9.783837 -1.364286 10.46241 -2.594001 2.413858 21.76069 5.256942 1.941562 -14.76295 7.125103 1.953156 -20.64216 11.65065 81.32985 22.71221 -8.276705 -0 0 23.94174 -25.77186 14.48976 12.85962 4.723732 -15.53034 -3.310408 -92.61555 22.16014 23.09821 0 0 -13.04362 -3.574609 6.798181 16.11987
23.66405 98.23785 253.7837 1.391384 -8.693955 -8.38655 -0.4146101 20.05418 7.321344 -0 15.14274 -0 6.385242 -12.99638 0.6421698 -1.158235 -21.73786 -5.193706 -0 31.39787 -0 -8.040307 -6.709607 19.46441 -1.42321 -0.7799222 9.72757 -1.624249 10.04816 -2.357069 2.474085 21.78915 5.228178 1.754261 -14.7277 7.320957 1.731987 -20.79765 11.42998 81.10594 22.29638 -7.359342 -0 0 24.69988 -25.88655 14.24606 13.05162 4.62624 -14.87461 -3.259783 -92.78789 22.41338 23.64241 0 0 -12.01564 -3.844351 6.781937 16.50548
23.89293 98.05723 260.4653 1.452753 -8.764498 -8.436726 -0.8842571 19.84939 7.025505 -0 19.7385 -0 6.771233 -12.59245 0.2978416 -1.680505 -20.99093 -5.783839 -0 28.54224 -0 -7.876019 -7.272619 19.27958 -1.594994 -0.8066506 9.528848 -1.804997 9.680981 -2.241309 2.52473 21.87774 5.215225 1.565006 -14.66766 7.533369 1.630271 -20.67529 11.19459 81.19778 22.04283 -6.971021 -0 0 24.84084 -25.83793 14.06416 13.08792 4.526909 -14.40104 -3.25867 -92.64481 22.72306 23.65711 0 0 -11.29362 -3.992892 6.826957 16.76766
24.14699 98.07688 267.1712 1.559141 -8.887077 -8.208786 -1.317746 18.72642 6.577472 -0 24.70203 -0 7.004552 -11.8492 -0.3185481 -2.422977 -19.13702 -6.490304 -0 26.48773 -0 -7.68336 -7.916097 18.96655 -1.817843 -0.8591473 9.196335 -1.902774 9.373592 -2.244664 2.568934 22.03567 5.214296 1.377971 -14.56936 7.757942 1.639286 -20.28471 10.94989 81.58783 21.95112 -7.101955 -0 0 24.38306 -25.62707 13.94093 12.96803 4.435098 -14.13124 -3.307826 -92.18919 23.08632 23.12208 0 0 -10.91616 -4.016835 6.938981 16.88856
24.41854 98.33354 273.8452 1.695547 -9.039776 -7.719495 -1.685238 16.70157 6.003574 -0 29.52322 -0 7.066003 -10.91258 -1.145593 -3.263365 -16.34228 -7.223112 -0 25.07617 -0 -7.473453 -8.650646 18.54333 -2.070501 -0.9062532 8.729988 -1.917428 9.117993 -2.370248 2.60982 22.25635 5.220847 1.196117 -14.42889 7.989591 1.716677 -19.66821 10.69535 82.23647 22.00023 -7.69058 -0 0 23.42634 -25.26522 13.86323 12.71069 4.371972 -14.07465 -3.403318 -91.43633 23.48821 22.0376 0 0 -10.91709 -3.9117 7.123111 16.84685
24.69935 98.79647 280.4335 1.836149 -9.182329 -7.004765 -1.950292 13.80133 5.344119 -0 33.54064 -0 6.930883 -9.971244 -2.094832 -4.060483 -12.82885 -7.897218 -0 24.00771 -0 -7.262884 -9.487045 18.02693 -2.320223 -0.9121412 8.124073 -1.850693 8.893103 -2.624854 2.650596 22.5235 5.22976 1.021719 -14.24846 8.222731 1.799909 -18.88625 10.42758 83.09231 22.15772 -8.646018 -0 0 22.11728 -24.76883 13.812 12.3455 4.365746 -14.23383 -3.538118 -90.40934 23.90478 20.41486 0 0 -11.32822 -3.671243 7.383902 16.61821
24.97879 99.37652 286.8913 1.955461 -9.277936 -6.113559 -2.09083 10.09408 4.644802 -0 36.21221 -0 6.579529 -9.184518 -3.08282 -4.709059 -8.823349 -8.462419 -0 23.00494 -0 -7.068304 -10.42655 17.43478 -2.537049 -0.8508341 7.380709 -1.707845 8.677052 -3.008216 2.694199 22.81843 5.235817 0.856859 -14.03482 8.451422 1.83475 -17.99802 10.14586 84.103 22.38896 -9.873755 -0 0 20.59731 -24.15684 13.76901 11.902 4.438036 -14.60021 -3.702604 -89.14397 24.30613 18.29016 0 0 -12.15606 -3.293895 7.721198 16.18868
